Coordinates
version=1
nRows=8
nColumns=36
inDegrees=yes

Units are S.I. units (second, meters, Newtons, ...)
If the header above contains a line with 'inDegrees', this indicates whether rotational values are in degrees (yes) or radians (no).

endheader
time	pelvis_tilt	pelvis_list	pelvis_rotation	pelvis_tx	pelvis_ty	pelvis_tz	hip_flexion_r	hip_adduction_r	hip_rotation_r	knee_angle_r	knee_angle_r_beta	ankle_angle_r	subtalar_angle_r	mtp_angle_r	hip_flexion_l	hip_adduction_l	hip_rotation_l	knee_angle_l	knee_angle_l_beta	ankle_angle_l	subtalar_angle_l	mtp_angle_l	lumbar_extension	lumbar_bending	lumbar_rotation	arm_flex_r	arm_add_r	arm_rot_r	elbow_flex_r	pro_sup_r	arm_flex_l	arm_add_l	arm_rot_l	elbow_flex_l	pro_sup_l
      3.40416670	     -0.52750569	     -0.19697519	     -0.80748902	      0.10329976	      0.81353238	     -0.08285865	     55.63573926	    -10.53148875	     -8.24838632	     83.90612447	      1.46443813	     23.70498758	    -15.79308105	     -7.49999987	     59.47993275	    -14.29730658	     -2.73698911	     80.16587280	      1.39915843	     12.68010531	    -17.08491340	     -7.49999987	    -49.33632715	      0.74118296	     -0.81286854	     13.83663259	    -10.22143618	      3.21522570	     82.98151882	     88.34930501	      6.92420496	    -20.09622142	      9.41392152	     54.97496785	     70.51604938
      3.40833330	     -0.80376601	     -0.09569264	     -0.96635131	      0.10446066	      0.81097596	     -0.08665110	     56.54102634	    -10.49875003	     -7.99783472	     84.76957543	      1.47950820	     24.26009050	    -15.78454902	     -7.49999987	     59.91797055	    -14.28128346	     -2.65876203	     80.75914881	      1.40951305	     13.89632999	    -16.44565995	     -7.49999987	    -49.94460330	      0.52334219	     -0.98975529	     15.23962963	    -10.17636091	      3.85182352	     82.96771650	     88.50224271	      8.21792052	    -20.39129557	      9.95261909	     54.90459374	     70.63857578
      3.41250000	     -1.02270183	     -0.07306846	     -0.94214753	      0.11313431	      0.80646140	     -0.09055746	     56.85928769	    -10.72957456	     -7.74655667	     85.43799867	      1.49117438	     25.01336801	    -15.46847389	     -7.49999987	     60.33575008	    -14.13115449	     -2.56821691	     81.61335929	      1.42442183	     14.85824029	    -16.32088387	     -7.49999987	    -50.39651898	      0.60124295	     -1.10688582	     16.19068064	    -10.25355818	      4.23016364	     82.71239007	     88.60810591	      9.22440530	    -20.39539978	     10.36161936	     54.77923308	     70.69927476
      3.41666670	     -1.03455186	     -0.08409052	     -0.97426889	      0.11076467	      0.79911592	     -0.09223176	     57.26170830	    -10.77986940	     -7.30350279	     86.17690338	      1.50407070	     25.66785001	    -15.84948254	     -7.49999987	     60.77881394	    -13.83936764	     -2.33451665	     82.55441880	      1.44084642	     15.61151012	    -16.75703676	     -7.49999987	    -50.99694079	      0.75199085	     -1.18241234	     17.33859488	    -10.22063812	      4.26386036	     82.90619746	     89.00612531	     10.42907483	    -20.35777436	     10.32117824	     54.87897422	     70.84237963
      3.42083330	     -1.50164667	      0.23118798	     -0.96508182	      0.11600755	      0.79630364	     -0.09817639	     58.43794784	    -11.48405571	     -6.68061731	     87.37396266	      1.52496333	     26.31512807	    -15.04815673	     -7.49999987	     61.38099279	    -13.10840910	     -2.37794731	     83.25851182	      1.45313516	     17.25470181	    -15.97376036	     -7.49999987	    -50.90165204	      0.87723653	     -1.43733915	     18.41029040	    -10.76288271	      5.31742392	     82.61481413	     89.13193264	     11.34199481	    -20.28636019	     11.17856627	     54.80040235	     70.89382548
      3.42500000	     -1.46220631	      0.18553220	     -0.98425700	      0.11426311	      0.78818519	     -0.09364395	     59.09779038	    -11.49578230	     -6.33548669	     88.53011552	      1.54514200	     26.58833137	    -15.16524146	     -7.49999987	     61.76691479	    -12.86641882	     -1.94987406	     84.06546015	      1.46721907	     18.03695255	    -16.26859210	     -7.49999987	    -51.49315465	      0.95966983	     -1.37353664	     19.51924861	    -10.62401255	      5.40036039	     82.71977510	     89.25768794	     12.59224466	    -20.37380882	     11.06714638	     54.94011503	     70.94650499
      3.42916670	     -2.13869747	      0.21107372	     -0.94526833	      0.11137056	      0.77956915	     -0.08375116	     61.05128206	    -11.22092702	     -5.96864880	     90.10336272	      1.57260035	     26.92869013	    -15.24271894	     -7.49999987	     63.29311283	    -12.93557881	     -1.36117908	     85.25133516	      1.48791649	     19.29078419	    -15.47400489	     -7.49999987	    -51.22424563	      0.69869499	     -1.33269370	     20.56118677	    -10.59753547	      6.44797714	     82.80208076	     89.53742723	     13.78295348	    -21.15138062	     11.62985812	     55.39816004	     71.03123892
      3.43333330	     -2.47715180	      0.08682521	     -0.94474209	      0.11179326	      0.77800016	     -0.08184094	     62.08167926	    -10.59439202	     -5.87501339	     90.99251516	      1.58811898	     26.95124983	    -15.45362746	     -7.49999987	     64.16440949	    -13.19682885	     -0.80360761	     85.86143015	      1.49856466	     19.72555450	    -15.02043191	     -7.49999987	    -51.57527805	      0.38813526	     -1.19084281	     21.78175751	    -10.23360977	      6.98504533	     82.65034591	     89.30182771	     15.26136664	    -21.85736159	     11.86625187	     55.75689896	     71.03016316
